<?xml version="1.0" encoding="UTF-8" standalone="no"?>
<svg
   width="316.31702"
   height="34"
   viewBox="0 0 316.31702 34"
   fill="none"
   version="1.1"
   id="svg34"
   sodipodi:docname="315949ff623122869508aabcd20d62f0.svg"
   xmlns:inkscape="http://www.inkscape.org/namespaces/inkscape"
   xmlns:sodipodi="http://sodipodi.sourceforge.net/DTD/sodipodi-0.dtd"
   xmlns="http://www.w3.org/2000/svg"
   xmlns:svg="http://www.w3.org/2000/svg">
  <defs
     id="defs38" />
  <sodipodi:namedview
     id="namedview36"
     pagecolor="#ffffff"
     bordercolor="#666666"
     borderopacity="1.0"
     inkscape:pageshadow="2"
     inkscape:pageopacity="0.0"
     inkscape:pagecheckerboard="0" />
  <path
     d="m 41.188123,24.6716 h -3.4967 V 8.3295 h 5.6155 c 0.9357,-0.0104 1.869,0.0999 2.7766,0.3281 0.7619,0.1887 1.4793,0.5257 2.1111,0.9919 0.584,0.4446 1.0454,1.0306 1.3408,1.7028 0.3117,0.6927 0.4676,1.506 0.4676,2.4399 0.0148,0.8416 -0.1483,1.6767 -0.4786,2.4508 -0.3111,0.7059 -0.787,1.3266 -1.3877,1.81 -0.6582,0.5157 -1.4117,0.8963 -2.2171,1.1199 -0.956,0.2686 -1.9455,0.3986 -2.9384,0.386 h -1.7964 z m -0.07,-8.1945 h 1.9123 c 1.0578,0 1.882,-0.2064 2.4728,-0.619 0.5908,-0.4127 0.8862,-1.0546 0.8862,-1.9259 0,-0.9187 -0.2877,-1.5686 -0.8632,-1.9499 -0.5755,-0.3814 -1.3994,-0.572 -2.4718,-0.572 h -1.933 z"
     fill="#ffffff"
     id="path2" />
  <path
     d="m 60.595623,24.9527 c -1.1009,0.0143 -2.1952,-0.1709 -3.2301,-0.5468 -0.9475,-0.3475 -1.806,-0.9015 -2.5133,-1.6219 -0.7252,-0.7562 -1.2784,-1.6606 -1.6216,-2.6509 -0.3809,-1.0499 -0.5714,-2.2598 -0.5714,-3.6298 0,-1.3699 0.1981,-2.5802 0.5944,-3.6308 0.3582,-0.9881 0.9183,-1.8906 1.6445,-2.6499 0.7003,-0.7155 1.5483,-1.269 2.4849,-1.6219 0.9956,-0.3724 2.0514,-0.5578 3.1142,-0.5468 1.2603,0 2.384,0.1947 3.3711,0.584 0.9476,0.3585 1.8025,0.9259 2.5012,1.6602 0.7012,0.7662 1.2302,1.6739 1.5517,2.6619 0.3713,1.1414 0.5522,2.3364 0.5354,3.5367 0,1.4473 -0.1982,2.7042 -0.5945,3.7709 -0.3492,0.9914 -0.9148,1.8925 -1.6554,2.6378 -0.7079,0.6925 -1.5608,1.2189 -2.4969,1.5409 -1.002,0.3437 -2.055,0.5149 -3.1142,0.5064 z m 0.1169,-3.0819 c 0.5611,0.0056 1.1171,-0.1061 1.6325,-0.3281 0.5022,-0.2212 0.9429,-0.5617 1.284,-0.9919 0.3834,-0.4959 0.6646,-1.0632 0.8272,-1.6689 0.2081,-0.7763 0.3063,-1.5781 0.2917,-2.3819 0,-1.8526 -0.3886,-3.2105 -1.1659,-4.0737 -0.7773,-0.8633 -1.8037,-1.2953 -3.0793,-1.296 -0.5573,-0.0033 -1.1093,0.1084 -1.6216,0.3281 -0.5113,0.2219 -0.9629,0.5618 -1.3178,0.9919 -0.4009,0.4961 -0.6982,1.0677 -0.8742,1.6809 -0.2235,0.7696 -0.33,1.5686 -0.3158,2.3699 -0.0166,0.8071 0.0978,1.6115 0.3388,2.3819 0.1933,0.612 0.5064,1.1793 0.9211,1.6689 0.3753,0.4333 0.8463,0.7729 1.3757,0.9919 0.5409,0.2198 1.1199,0.3305 1.7036,0.3259 z"
     fill="#ffffff"
     id="path4" />
  <path
     d="m 84.133123,24.0242 c -0.2186,0.1086 -0.4557,0.2179 -0.7114,0.328 -0.2956,0.1215 -0.5994,0.222 -0.9091,0.3008 -0.3988,0.101 -0.8041,0.174 -1.2129,0.2187 -0.5233,0.0572 -1.0494,0.0842 -1.5757,0.0809 -1.1536,0.0144 -2.3012,-0.1671 -3.394,-0.5369 -0.9738,-0.3309 -1.8647,-0.8685 -2.6116,-1.5759 -0.7447,-0.7245 -1.3187,-1.6057 -1.6806,-2.5799 -0.397,-1.0266 -0.5952,-2.2095 -0.5945,-3.5488 0,-1.4013 0.1982,-2.6426 0.5945,-3.7239 0.3605,-1.024 0.9469,-1.9536 1.7155,-2.7198 0.7721,-0.7473 1.7003,-1.3135 2.7176,-1.6579 1.1619,-0.3887 2.3811,-0.578 3.606,-0.56 0.803,-0.0083 1.6046,0.0698 2.3909,0.233 0.5887,0.1184 1.1633,0.2984 1.7144,0.5369 l -0.7649,2.9419 c -0.4929,-0.1697 -1.0002,-0.2945 -1.5156,-0.3729 -0.4398,-0.0716 -0.8842,-0.1107 -1.3298,-0.1171 -0.7457,-0.0086 -1.4885,0.0939 -2.204,0.3041 -0.6308,0.1864 -1.2126,0.5102 -1.7036,0.9482 -0.4911,0.4537 -0.8703,1.0152 -1.108,1.6404 -0.2644,0.6635 -0.3963,1.4476 -0.3955,2.3524 0,1.7308 0.4859,3.0334 1.4577,3.9075 0.9717,0.8742 2.283,1.3116 3.9337,1.3124 0.4547,-0.0086 0.9076,-0.0595 1.3528,-0.152 0.5295,-0.1011 1.0459,-0.2614 1.5397,-0.478 z"
     fill="#ffffff"
     id="path6" />
  <path
     d="m 97.429023,21.0998 h -6.274 l -1.167,3.5718 h -3.4519 l 5.5729,-16.3432 h 4.549 l 5.504997,16.3432 h -3.563997 z m -5.318,-3.0819 h 4.362 l -2.169,-6.8647 z"
     fill="#ffffff"
     id="path8" />
  <path
     d="m 110.12002,24.6717 h -3.497 V 11.5481 h -4.643 V 8.3296 h 12.761 v 3.2218 h -4.619 z"
     fill="#ffffff"
     id="path10" />
  <path
     d="m 124.30302,24.9527 c -1.101,0.0142 -2.196,-0.171 -3.231,-0.5469 -0.945,-0.3484 -1.802,-0.9023 -2.508,-1.6218 -0.724,-0.7566 -1.277,-1.6609 -1.62,-2.651 -0.383,-1.0498 -0.574,-2.2598 -0.573,-3.6297 0.001,-1.37 0.199,-2.5802 0.596,-3.6309 0.356,-0.9878 0.914,-1.8903 1.639,-2.6498 0.699,-0.7157 1.547,-1.2693 2.483,-1.6219 0.996,-0.3723 2.052,-0.5576 3.115,-0.5468 1.259,0 2.383,0.1947 3.371,0.584 0.948,0.3585 1.803,0.9259 2.502,1.6601 0.701,0.7664 1.23,1.674 1.551,2.6619 0.372,1.1413 0.553,2.3364 0.536,3.5368 0,1.4473 -0.198,2.7042 -0.594,3.7709 -0.35,0.9916 -0.915,1.8928 -1.657,2.6378 -0.707,0.6923 -1.56,1.2186 -2.496,1.5409 -1.002,0.3436 -2.055,0.5148 -3.114,0.5064 z m 0.117,-3.0819 c 0.561,0.0052 1.117,-0.1065 1.633,-0.3281 0.502,-0.2214 0.942,-0.5618 1.284,-0.9919 0.383,-0.4962 0.664,-1.0633 0.828,-1.6689 0.208,-0.7764 0.306,-1.5782 0.292,-2.3819 0,-1.8526 -0.389,-3.2105 -1.167,-4.0738 -0.778,-0.8632 -1.805,-1.2952 -3.08,-1.2959 -0.557,-0.0032 -1.108,0.1085 -1.62,0.3281 -0.512,0.2216 -0.963,0.5616 -1.318,0.9919 -0.401,0.4961 -0.698,1.0677 -0.874,1.6809 -0.223,0.7698 -0.329,1.5686 -0.315,2.3699 -0.016,0.807 0.098,1.6113 0.338,2.3819 0.193,0.6121 0.507,1.1794 0.922,1.6689 0.375,0.4337 0.846,0.7735 1.376,0.9919 0.54,0.2197 1.118,0.3304 1.701,0.3259 z"
     fill="#ffffff"
     id="path12" />
  <path
     d="m 153.99902,24.6717 h -3.522 l -0.887,-10.8565 -3.359,10.8565 h -3.337 l -3.312,-10.8094 -0.881,10.8094 h -3.523 l 1.628,-16.3421 h 4.176 l 3.686,12.3274 3.639,-12.3274 h 4.035 z"
     fill="#ffffff"
     id="path14" />
  <path
     d="m 18.740523,16.5032 c -4e-4,0.4275 -0.085,0.8508 -0.2489,1.2456 -0.1638,0.3949 -0.4038,0.7535 -0.7062,1.0555 -0.3024,0.3021 -0.6612,0.5415 -1.0561,0.7047 -0.3948,0.1633 -0.8179,0.247 -1.2451,0.2466 -0.8627,-9e-4 -1.6897,-0.3445 -2.2993,-0.9554 -0.6095,-0.611 -0.9518,-1.4391 -0.9515,-2.3025 0.0011,-0.8637 0.3449,-1.6916 0.9557,-2.3017 0.6108,-0.6101 1.4387,-0.9524 2.3017,-0.9519 0.8626,0.0012 1.6895,0.3451 2.2989,0.9563 0.6094,0.6111 0.9514,1.4394 0.9508,2.3028 z"
     fill="#ffffff"
     id="path16" />
  <path
     d="m 15.516423,1.0022 c -2.2691,-0.003401 -4.5111,0.4928 -6.5671996,1.4534 2.6530996,-0.2734 5.4088996,0.8749 7.4435996,2.9255 1.0173,1.0061 1.909,2.3097 2.6662,3.8791 4.3163,0.7732 7.2469,-1.3725 8.403,-2.6422 -1.4549,-1.7589 -3.2801,-3.1744 -5.3452,-4.1452 -2.065,-0.9708 -4.3188,-1.472901 -6.6004,-1.4706 z"
     fill="#ffffff"
     id="path18" />
  <path
     d="m 6.1750034,4.1255 c -2.1419,1.6157 -3.8295,3.7587 -4.8987,6.2206 1.2895,0.3182 5.1489,1.5726 6.9191,6.3496 0.5322,-0.1739 1.6806,-0.8421 2.4772196,-3.4231 0.9769,-3.1616 2.757,-6.2129 5.0659,-7.5635 -2.545,-2.4672 -6.4077196,-3.5466 -9.5635196,-1.5836 z"
     fill="#ffffff"
     id="path20" />
  <path
     d="m 28.950823,24.2516 c 1.1367,-1.9612 1.8277,-4.1489 2.0238,-6.4076 -1.0928,2.4322 -3.4585,4.2444 -6.2569,4.9782 -1.3801,0.3773 -2.9504,0.4965 -4.6987,0.3675 -2.828,3.3486 -2.4335,6.9576 -1.9112,8.5915 2.2502,-0.3776 4.3891,-1.2484 6.2636,-2.5502 1.8745,-1.3017 3.4383,-3.0021 4.5794,-4.9794 z"
     fill="#ffffff"
     id="path22" />
  <path
     d="m 30.911923,14.6059 c -0.3299,-2.6634 -1.3437,-5.1958 -2.9427,-7.3503 -0.9201,0.9569 -3.9338,3.6691 -8.9603,2.8128 -0.1158,0.5468 -0.1093,1.8756 1.7287,3.8551 2.251,2.4267 4.0059,5.4922 4.0223,8.165 3.4092,-0.9635 6.2765,-3.7708 6.152,-7.4826 z"
     fill="#ffffff"
     id="path24" />
  <path
     d="m 2.0794234,24.2495 c 1.1329,1.9658 2.6845,3.6576 4.5446,4.9553 -1.5636,-2.1588 -1.9505,-5.1138 -1.1867,-7.9026 0.3628,-1.3834 1.0469,-2.8073 2.0281,-4.2476 -1.4872,-4.1208 -4.8079,-5.5841 -6.49073002,-5.9494 -0.79708,2.1367 -1.1114,4.4235 -0.9203901,6.6962 0.1910101,2.2727 0.8826211,4.4748 2.02512012,6.4481 z"
     fill="#ffffff"
     id="path26" />
  <path
     d="m 9.4594134,30.7696 c 2.4728096,1.0455 5.1734096,1.4342 7.8403096,1.1286 -0.3694,-1.2741 -1.2118,-5.2407 2.0434,-9.1614 -0.4175,-0.374 -1.5703,-1.0334 -4.2059,-0.4319 -3.229,0.7349 -6.7628096,0.7207 -9.0881096,-0.6015 -0.8644,3.4351 0.1311,7.3174 3.4103,9.0662 z"
     fill="#ffffff"
     id="path28" />
  <path
     d="m 201.62102,3.354 -0.154,1.064 h -3.738 v 3.15 h 3.248 v 1.064 h -3.248 v 3.304 h 4.004 V 13 h -5.334 V 3.354 Z m 8.122,8.61 V 15.1 h -1.05 l -0.21,-2.1 h -4.732 l -0.21,2.1 h -1.05 v -3.136 h 0.518 c 0.224,-0.1493 0.402,-0.3173 0.532,-0.504 0.131,-0.196 0.248,-0.532 0.35,-1.008 0.112,-0.476 0.201,-1.1713 0.266,-2.086 l 0.196,-2.744 h 4.62 v 6.342 z m -2.058,-5.32 h -2.17 l -0.112,1.554 c -0.065,0.868 -0.14,1.5353 -0.224,2.002 -0.084,0.4667 -0.205,0.826 -0.364,1.078 -0.149,0.252 -0.368,0.4807 -0.658,0.686 h 3.528 z m 9.683,6.356 h -1.274 V 9.668 c 0,-0.56 0.018,-1.092 0.056,-1.596 0.037,-0.504 0.07,-0.8353 0.098,-0.994 l -3.094,5.922 h -1.526 V 5.622 h 1.274 v 3.332 c 0,0.4947 -0.019,1.008 -0.056,1.54 -0.038,0.5227 -0.066,0.8587 -0.084,1.008 l 3.052,-5.88 h 1.554 z m 7.008,0 V 9.752 h -3.066 V 13 h -1.288 V 5.622 h 1.288 v 3.094 h 3.066 V 5.622 h 1.288 V 13 Z m 6.073,-4.998 c 1.102,0 1.9,0.2147 2.394,0.644 0.495,0.4293 0.742,1.0407 0.742,1.834 0,0.8307 -0.28,1.4607 -0.84,1.89 -0.55,0.42 -1.236,0.63 -2.058,0.63 h -2.366 V 5.622 h 1.288 v 2.38 z m 4.2,-2.38 h 1.288 V 13 h -1.288 z m -4.074,6.37 c 0.523,0 0.924,-0.1167 1.204,-0.35 0.29,-0.2333 0.434,-0.6207 0.434,-1.162 0,-0.5133 -0.135,-0.8913 -0.406,-1.134 -0.261,-0.2427 -0.718,-0.364 -1.372,-0.364 h -0.826 v 3.01 z m 13.767,1.008 h -1.274 V 9.668 c 0,-0.56 0.019,-1.092 0.056,-1.596 0.038,-0.504 0.07,-0.8353 0.098,-0.994 l -3.094,5.922 h -1.526 V 5.622 h 1.274 v 3.332 c 0,0.4947 -0.018,1.008 -0.056,1.54 -0.037,0.5227 -0.065,0.8587 -0.084,1.008 l 3.052,-5.88 h 1.554 z m -2.898,-9.002 c -0.569,0 -1.05,-0.1447 -1.442,-0.434 -0.382,-0.2987 -0.602,-0.7 -0.658,-1.204 l 0.854,-0.182 c 0.094,0.2987 0.238,0.5133 0.434,0.644 0.206,0.1307 0.476,0.196 0.812,0.196 0.336,0 0.612,-0.0653 0.826,-0.196 0.215,-0.14 0.369,-0.3547 0.462,-0.644 l 0.854,0.182 c -0.056,0.504 -0.284,0.9053 -0.686,1.204 -0.392,0.2893 -0.877,0.434 -1.456,0.434 z m -39.585,19.624 -2.24,3.416 2.506,3.962 h -1.526 l -2.044,-3.402 h -0.938 V 31 h -1.288 v -7.378 h 1.288 v 2.968 h 0.966 l 1.862,-2.968 z m 6.495,5.656 c 0,0.2987 0.051,0.5227 0.154,0.672 0.102,0.14 0.256,0.2473 0.462,0.322 l -0.294,0.896 c -0.383,-0.0467 -0.691,-0.154 -0.924,-0.322 -0.234,-0.168 -0.406,-0.4293 -0.518,-0.784 -0.495,0.7373 -1.228,1.106 -2.198,1.106 -0.728,0 -1.302,-0.2053 -1.722,-0.616 -0.42,-0.4107 -0.63,-0.9473 -0.63,-1.61 0,-0.784 0.28,-1.386 0.84,-1.806 0.569,-0.42 1.372,-0.63 2.408,-0.63 h 1.134 V 25.96 c 0,-0.5227 -0.126,-0.896 -0.378,-1.12 -0.252,-0.224 -0.64,-0.336 -1.162,-0.336 -0.542,0 -1.204,0.1307 -1.988,0.392 l -0.322,-0.938 c 0.914,-0.336 1.764,-0.504 2.548,-0.504 0.868,0 1.516,0.2147 1.946,0.644 0.429,0.42 0.644,1.022 0.644,1.806 z m -3.024,0.924 c 0.737,0 1.316,-0.3827 1.736,-1.148 V 27.36 h -0.966 c -1.363,0 -2.044,0.504 -2.044,1.512 0,0.4387 0.107,0.77 0.322,0.994 0.214,0.224 0.532,0.336 0.952,0.336 z m 9.057,-6.748 c 0.943,0 1.633,0.336 2.072,1.008 0.439,0.672 0.658,1.6193 0.658,2.842 0,1.1573 -0.252,2.0907 -0.756,2.8 -0.504,0.7093 -1.218,1.064 -2.142,1.064 -0.821,0 -1.465,-0.28 -1.932,-0.84 v 3.5 l -1.288,0.154 v -10.36 h 1.106 l 0.098,0.994 c 0.271,-0.3733 0.597,-0.658 0.98,-0.854 0.383,-0.2053 0.784,-0.308 1.204,-0.308 z m -0.476,6.664 c 1.213,0 1.82,-0.938 1.82,-2.814 0,-1.8853 -0.555,-2.828 -1.666,-2.828 -0.364,0 -0.695,0.1073 -0.994,0.322 -0.299,0.2147 -0.56,0.49 -0.784,0.826 v 3.598 c 0.187,0.2893 0.42,0.5133 0.7,0.672 0.28,0.1493 0.588,0.224 0.924,0.224 z m 7.668,-4.116 c 1.102,0 1.9,0.2147 2.394,0.644 0.495,0.4293 0.742,1.0407 0.742,1.834 0,0.8307 -0.28,1.4607 -0.84,1.89 -0.55,0.42 -1.236,0.63 -2.058,0.63 h -2.506 v -7.378 h 1.288 v 2.38 z m 0.126,3.99 c 0.523,0 0.924,-0.1167 1.204,-0.35 0.29,-0.2333 0.434,-0.6207 0.434,-1.162 0,-0.5133 -0.135,-0.8913 -0.406,-1.134 -0.261,-0.2427 -0.718,-0.364 -1.372,-0.364 h -0.966 v 3.01 z m 10.397,-2.898 c 0,0.2147 -0.009,0.434 -0.028,0.658 h -4.704 c 0.056,0.812 0.262,1.4093 0.616,1.792 0.355,0.3827 0.812,0.574 1.372,0.574 0.355,0 0.682,-0.0513 0.98,-0.154 0.299,-0.1027 0.612,-0.266 0.938,-0.49 l 0.56,0.77 c -0.784,0.616 -1.642,0.924 -2.576,0.924 -1.026,0 -1.829,-0.336 -2.408,-1.008 -0.569,-0.672 -0.854,-1.596 -0.854,-2.772 0,-0.7653 0.122,-1.442 0.364,-2.03 0.252,-0.5973 0.607,-1.064 1.064,-1.4 0.467,-0.336 1.013,-0.504 1.638,-0.504 0.98,0 1.732,0.322 2.254,0.966 0.523,0.644 0.784,1.5353 0.784,2.674 z m -1.274,-0.378 c 0,-0.728 -0.144,-1.2833 -0.434,-1.666 -0.289,-0.3827 -0.723,-0.574 -1.302,-0.574 -1.054,0 -1.628,0.7747 -1.722,2.324 h 3.458 z m 6.719,-3.262 c 0.943,0 1.633,0.336 2.072,1.008 0.439,0.672 0.658,1.6193 0.658,2.842 0,1.1573 -0.252,2.0907 -0.756,2.8 -0.504,0.7093 -1.218,1.064 -2.142,1.064 -0.821,0 -1.465,-0.28 -1.932,-0.84 v 3.5 l -1.288,0.154 v -10.36 h 1.106 l 0.098,0.994 c 0.271,-0.3733 0.597,-0.658 0.98,-0.854 0.383,-0.2053 0.784,-0.308 1.204,-0.308 z m -0.476,6.664 c 1.213,0 1.82,-0.938 1.82,-2.814 0,-1.8853 -0.555,-2.828 -1.666,-2.828 -0.364,0 -0.695,0.1073 -0.994,0.322 -0.299,0.2147 -0.56,0.49 -0.784,0.826 v 3.598 c 0.187,0.2893 0.42,0.5133 0.7,0.672 0.28,0.1493 0.588,0.224 0.924,0.224 z m 9.755,0.882 v -3.248 h -3.066 V 31 h -1.288 v -7.378 h 1.288 v 3.094 h 3.066 v -3.094 h 1.288 V 31 Z m 6.072,-4.998 c 1.102,0 1.9,0.2147 2.394,0.644 0.495,0.4293 0.742,1.0407 0.742,1.834 0,0.8307 -0.28,1.4607 -0.84,1.89 -0.55,0.42 -1.236,0.63 -2.058,0.63 h -2.366 v -7.378 h 1.288 v 2.38 z m 4.2,-2.38 h 1.288 V 31 h -1.288 z m -4.074,6.37 c 0.523,0 0.924,-0.1167 1.204,-0.35 0.29,-0.2333 0.434,-0.6207 0.434,-1.162 0,-0.5133 -0.135,-0.8913 -0.406,-1.134 -0.261,-0.2427 -0.718,-0.364 -1.372,-0.364 h -0.826 v 3.01 z m 13.768,1.008 h -1.274 v -3.332 c 0,-0.56 0.018,-1.092 0.056,-1.596 0.037,-0.504 0.07,-0.8353 0.098,-0.994 l -3.094,5.922 h -1.526 v -7.378 h 1.274 v 3.332 c 0,0.4947 -0.019,1.008 -0.056,1.54 -0.038,0.5227 -0.066,0.8587 -0.084,1.008 l 3.052,-5.88 h 1.554 z m -2.898,-9.002 c -0.57,0 -1.05,-0.1447 -1.442,-0.434 -0.383,-0.2987 -0.602,-0.7 -0.658,-1.204 l 0.854,-0.182 c 0.093,0.2987 0.238,0.5133 0.434,0.644 0.205,0.1307 0.476,0.196 0.812,0.196 0.336,0 0.611,-0.0653 0.826,-0.196 0.214,-0.14 0.368,-0.3547 0.462,-0.644 l 0.854,0.182 c -0.056,0.504 -0.285,0.9053 -0.686,1.204 -0.392,0.2893 -0.878,0.434 -1.456,0.434 z m 13.569,9.002 v -6.328 h -3.024 V 31 h -1.288 v -7.378 h 5.6 V 31 Z m 6.718,-7.546 c 1.036,0 1.839,0.3453 2.408,1.036 0.579,0.6907 0.868,1.6287 0.868,2.814 0,0.7653 -0.131,1.442 -0.392,2.03 -0.261,0.5787 -0.639,1.0313 -1.134,1.358 -0.495,0.3173 -1.083,0.476 -1.764,0.476 -1.036,0 -1.843,-0.3453 -2.422,-1.036 -0.579,-0.6907 -0.868,-1.6287 -0.868,-2.814 0,-0.7653 0.131,-1.4373 0.392,-2.016 0.261,-0.588 0.639,-1.0407 1.134,-1.358 0.495,-0.3267 1.087,-0.49 1.778,-0.49 z m 0,1.036 c -1.279,0 -1.918,0.9427 -1.918,2.828 0,1.876 0.635,2.814 1.904,2.814 1.269,0 1.904,-0.9427 1.904,-2.828 0,-1.876 -0.63,-2.814 -1.89,-2.814 z m 8.792,-1.036 c 0.943,0 1.633,0.336 2.072,1.008 0.439,0.672 0.658,1.6193 0.658,2.842 0,1.1573 -0.252,2.0907 -0.756,2.8 -0.504,0.7093 -1.218,1.064 -2.142,1.064 -0.821,0 -1.465,-0.28 -1.932,-0.84 v 3.5 l -1.288,0.154 v -10.36 h 1.106 l 0.098,0.994 c 0.271,-0.3733 0.597,-0.658 0.98,-0.854 0.383,-0.2053 0.784,-0.308 1.204,-0.308 z m -0.476,6.664 c 1.213,0 1.82,-0.938 1.82,-2.814 0,-1.8853 -0.555,-2.828 -1.666,-2.828 -0.364,0 -0.695,0.1073 -0.994,0.322 -0.299,0.2147 -0.56,0.49 -0.784,0.826 v 3.598 c 0.187,0.2893 0.42,0.5133 0.7,0.672 0.28,0.1493 0.588,0.224 0.924,0.224 z m 10.029,-6.496 -0.154,1.05 h -2.366 V 31 h -1.288 v -6.328 h -2.436 v -1.05 z m 5.742,5.656 c 0,0.2987 0.051,0.5227 0.154,0.672 0.102,0.14 0.256,0.2473 0.462,0.322 l -0.294,0.896 c -0.383,-0.0467 -0.691,-0.154 -0.924,-0.322 -0.234,-0.168 -0.406,-0.4293 -0.518,-0.784 -0.495,0.7373 -1.228,1.106 -2.198,1.106 -0.728,0 -1.302,-0.2053 -1.722,-0.616 -0.42,-0.4107 -0.63,-0.9473 -0.63,-1.61 0,-0.784 0.28,-1.386 0.84,-1.806 0.569,-0.42 1.372,-0.63 2.408,-0.63 h 1.134 V 25.96 c 0,-0.5227 -0.126,-0.896 -0.378,-1.12 -0.252,-0.224 -0.64,-0.336 -1.162,-0.336 -0.542,0 -1.204,0.1307 -1.988,0.392 l -0.322,-0.938 c 0.914,-0.336 1.764,-0.504 2.548,-0.504 0.868,0 1.516,0.2147 1.946,0.644 0.429,0.42 0.644,1.022 0.644,1.806 z m -3.024,0.924 c 0.737,0 1.316,-0.3827 1.736,-1.148 V 27.36 h -0.966 c -1.363,0 -2.044,0.504 -2.044,1.512 0,0.4387 0.107,0.77 0.322,0.994 0.214,0.224 0.532,0.336 0.952,0.336 z m 11.073,-6.58 V 31 h -1.288 v -6.328 h -2.282 l -0.21,2.464 c -0.084,0.9987 -0.191,1.7453 -0.322,2.24 -0.121,0.4947 -0.317,0.8773 -0.588,1.148 -0.261,0.2613 -0.663,0.476 -1.204,0.644 l -0.322,-1.022 c 0.317,-0.112 0.541,-0.2567 0.672,-0.434 0.131,-0.1773 0.229,-0.448 0.294,-0.812 0.065,-0.364 0.135,-0.9987 0.21,-1.904 l 0.294,-3.374 z"
     fill="#ffffff"
     id="path30" />
  <path
     opacity="0.4"
     fill-rule="evenodd"
     clip-rule="evenodd"
     d="m 174.99902,0 v 34 h -1 V 0 Z"
     fill="#ffffff"
     id="path32" />
</svg>
